<?xml version="1.0" encoding="utf-8"?>
<!-- Generator: Adobe Illustrator 21.1.0, SVG Export Plug-In . SVG Version: 6.00 Build 0)  -->
<svg width="166" height="105" viewBox="0 0 166 105" fill="none" xmlns="http://www.w3.org/2000/svg">
<style type="text/css">
	.st0{fill:#1B1918;}
	.st1{fill:#E30016;}
</style>
<path class="st0" d="M15.4-5.2l-3.9,0c0,6.8-0.1,14.2,0.1,20.9l3.6,0L15.4-5.2z"/>
<path class="st0" d="M47.4-1.2l-3.8-0.9l-5.1,20.3l3.5,0.8L47.4-1.2z"/>
<path class="st0" d="M11.7,37.3c0.5,0.4,2.4,0.3,3.1,0.2L15,16.7l-3.4,0C11.6,23.2,11.5,30.8,11.7,37.3z"/>
<path class="st0" d="M41.5,20.5c-0.7-0.4-2.4-0.8-3.4-0.9c-0.5,0.8-4.3,16-4.7,18.1l3.4,0L41.5,20.5z"/>
<path class="st0" d="M18.2,103.7l2.2,0.6l6.1-22.6L24,81.6L18.2,103.7z"/>
<path class="st0" d="M12.4,103.5v0.8h2.3l0.1-22.8l-2.5,0L12.4,103.5z"/>
<path class="st0" d="M44.6,44.4c0-3.1-1.2-5.1-3.6-5.8c-2-0.6-15.5-0.3-18.7-0.3c-3,0-17.2-0.3-18.8,0.3c-2.6,1-3.4,2.8-3.4,6.2
	l0.1,37.8c0.3,2.3,2.4,4.3,5.1,4.3c0.1-9.9,0-19.9,0-29.8c0-2.5,0-4.9,0-7.4c0-2.8-0.4-4.8,2.5-5c4.4-0.4,10.3-0.1,14.9-0.2
	c19.2-0.1,17.3-1.5,17.3,5.4c0,12.2-0.3,25.1,0,37.1c6.4-0.4,4.8-8.5,4.8-14.1V44.4z"/>
<path class="st0" d="M106.8,58.6l1-0.3l0.5-6.2l-2.6,0.9c0-0.1-0.1-0.2-0.1-0.2l-0.3-0.5l-1.9,0.6l-0.1,0.3
	c-0.1,0.2-0.1,0.4-0.2,0.6c-0.2,0-0.4,0.1-0.5,0.1c-2,0.4-3.8,0.6-5.4,0.6l0.4-1.6l-5.8-0.3L91.4,54l-2.1-0.5L88.5,56l2.5,1.1
	c0,0.9-0.1,1.8-0.1,2.8c-0.1,1.6-0.2,3.3-0.1,5.1c0.1,1.8,0.3,3.5,0.4,5.1c0.1,0.7,0.2,1.4,0.2,2.2c-0.2,0.1-0.5,0.1-0.9,0.1
	l-0.6,0.1l-0.5,6.3l3.2-1l0.5,1.8l2.4-0.8L95.3,77c1.4-0.3,3.7-0.7,5.5-0.6l-0.6,2.3l5.8,0.4l0.5-2.1l1.8,0.4l0.9-2.4l-2.3-1.1
	C107.3,68.8,107.6,64.3,106.8,58.6z M101.9,72.4c-2-0.4-3.5-0.4-5.3-0.5c-0.6,0-1.1,0-1.8-0.1c-0.1-3.5,0.2-7,0.8-10.7
	c0-0.1,0.1-0.3,0.1-0.5c0.1-0.6,0.2-1.5,0.4-2.1c0.6,0,1.3,0.1,1.9,0.2c0.6,0.1,1.2,0.2,1.8,0.2c1.2,0.1,2.1,0.1,3.1,0
	c0.2,0,0.3,0,0.5,0C103.4,62.7,102.9,69.5,101.9,72.4z"/>
<path class="st0" d="M62.8,46.2c0.8-0.2,1.6-0.5,2.4-0.7c6.9-1.7,10.1-1.3,16-0.7c1.1,0.1,2.3,0.3,3.6,0.4l1,0.1L85.2,42l-0.5-0.1
	c-0.5-0.1-0.8-0.2-1.2-0.3c-0.4-0.1-0.8-0.2-0.8-0.2c0,0,0,0,0,0l-1.2-6c-0.5-1.8-1.1-3.8-1.9-6c-0.7-1.9-3.7-8.5-5.2-10.4l-0.3-0.3
	l-1,0.1L73,18.8c-2.9,2.8-7.4,12-8.7,15.9l-1.9,5.8L59,41.3l-0.6,6.1l1-0.2C60.5,46.9,61.7,46.6,62.8,46.2z M72.4,25.5
	c2,2.7,6.1,11.5,7,15.2c-0.5-0.1-1.1-0.2-1.6-0.2c-1.1-0.2-2.3-0.4-3.5-0.4c-0.9,0-1.7,0-2.6,0c-0.8,0-1.5,0-2.3,0
	c-0.4,0-0.8,0-1.2,0C68.6,36,70.8,29,72.4,25.5z"/>
<path class="st0" d="M166,53.1l-0.3-1.2l-5.4,0.1l-0.2,0.5c-0.3,0.8-0.3,1.9-0.4,2.9c0,1,0,2-0.3,2.7c-1.2,3-4.7,9.5-7,12.1
	c-0.9-5.5-0.3-13,0.5-16.7l0.2-0.7l-2.6-0.6l-0.2,0.7c-0.2,0.7-0.4,1.5-0.6,2.2c-0.3,1.1-0.7,2.2-0.9,3.5
	c-0.8,4.1-1.9,12.1-0.6,19.6l0.1,0.7l5.5-0.2l0.1-0.6c0.1-0.3,0-0.6,0-0.8c0-0.1,0.2-0.3,0.6-0.9c1.6-2.3,3.9-6.4,5.1-9l0.7-1.7
	c0.1,0.7,0.2,1.3,0.3,1.8c0.5,3.2,0.8,5.7,2.6,10.4l0.3,0.7l2.3-0.7l0-0.6c-0.1-1.1-0.3-2.3-0.5-3.5c-0.2-1.1-0.4-2.2-0.5-3.2
	c-0.4-4.2-0.1-15.3,1.1-17.2L166,53.1z"/>
<path class="st0" d="M118.8,46.2c0.4,0.2,0.8,0.3,1.2,0.5l1,0.4l-0.1-5.3l-0.6-0.1c-5.1-1.1-8.9-1.7-13.8-0.5
	c0.1-0.4,0.2-0.8,0.3-1.2c0.3-1.3,0.8-3,1-4.5c0.6,0,1.1,0.1,1.7,0.2c1.6,0.2,3.7,0.5,8.1-0.4l0.6-0.1l0.3-5.6l-1.1,0.4
	c-3.3,1.2-5.3,1.8-9,1.9l0.3-5.8c0.7-0.1,1.3-0.1,2-0.1c2.1,0,4.8,0,9.7-1.9l0.5-0.2l-0.6-6.3l-1.1,0.7c-2.1,1.3-7.3,3.6-10.7,3.9
	l-0.1-1.7l-0.5-0.2c-1-0.3-2.6-0.3-3.9-0.3c-0.3,0-0.5,0-0.8,0h-0.9l0.4,2.3l-1-0.1l-0.5,2.6l2.1,0.6l0.3,6.2l-1.5-0.3l-0.7,2.2
	l2.3,1.1c0,2.1-0.4,5.5-0.7,7.3c-0.1,0.3-0.1,0.5-0.1,0.5c0,0-0.1,0-0.2,0.1c-0.2,0.1-0.4,0.1-0.7,0.3l-0.6,0.3l0.2,0.7
	c0,0.2,0.1,0.5,0.2,0.8c0.1,0.2,0.2,0.5,0.4,0.6c0,0.1,0,0.1,0.1,0.1c-0.1,0.2,0,0.4,0.1,0.6c0.2,0.3,0.4,0.4,1.1,0.7l1,0.3l0.7-1.9
	l0.2,0c4.6-0.4,6.1-0.5,11.2,0.9C117.6,45.7,118.2,46,118.8,46.2z"/>
<path class="st0" d="M67.8,73.8c-1-1.4-2.2-3-2.8-4.3c1.5-0.3,2.7-0.5,3.3-0.9l0.4-0.2l-0.1-4.6l-0.8,0.1c-0.9,0.1-1.8,0.4-2.8,0.7
	c-0.7,0.2-1.4,0.4-2.1,0.6c-0.2-0.4-0.3-0.8-0.5-1.1c-0.2-0.4-0.3-0.7-0.5-1.1c-2.4-5.6-2.1-5.9-1.5-6.6c0.3-0.3,0.6-0.8,0.9-1.5
	l0.3-0.7l-3.5-1.6l-0.1,0c-0.2-0.1-0.4-0.1-0.6-0.1c-0.2,0-0.2,0-0.4-0.1l-0.5-0.2L56,52.5c-1.6,1.5-4.5,10.4-5.2,14l-5.7-0.3
	L45,69.3l5.2,0.7c-0.3,2.5-0.5,4.6-0.6,7.3l0,0.8l2.7-0.1l0.1-0.7c0.2-1.9,1-5.8,1.5-7.2l6.1-0.1c0.1,0.2,0.2,0.5,0.4,0.8
	c0.9,1.8,2.4,5.2,3.3,6.7l0.2,0.4l0.5,0c0.7,0,1.6-0.4,3-1c0.5-0.2,1-0.4,1.3-0.5l0.9-0.3l-0.6-0.8C68.6,74.9,68.2,74.4,67.8,73.8z
	 M55.2,66.3c0.6-1.5,1.4-3.6,2.1-4.8c0.1,0.4,0.2,0.7,0.3,1c0.3,1.1,0.6,2.3,0.9,3.4C57.1,66.1,56,66.3,55.2,66.3z"/>
<path class="st0" d="M145.9,57.9l0.7-0.5l-3.7-4.4l-0.6,0.4c-2.6,1.7-5.1,3.5-7.2,5.4c-0.3,0.3-0.7,0.7-1.1,1c0-0.1,0-0.2,0-0.3
	c0.1-1.2,0.2-3,0-5.5l-0.1-0.6l-5.9-0.4l0.1,0.9c0.2,1.6,0.3,2.8,0.4,3.8c0.4,3.1,0.5,4.4,0.2,9.3c-0.3,4.5-0.5,5.6-1.2,8.2
	c-0.2,0.8-0.4,1.8-0.7,3l-0.1,0.6l2.2,1l0.3-0.6c1.3-2.3,2.9-7.6,3.5-10.5c0.1-0.3,0.1-0.5,0.1-0.8c0.1-0.4,0.1-0.9,0.2-1.2
	c0.1,0.3,0.3,0.5,0.4,0.8c0.3,0.5,0.6,1.1,0.9,1.6c0.5,0.7,4.5,7.2,6.8,9l0.5,0.4l4.6-3.4l-0.7-0.6c-1.9-1.7-3.4-3.1-5.2-5.2
	c-1.2-1.3-3.3-3.8-4.3-5.4c2.9-2.2,5.6-3.6,7.4-4.6C144.7,58.7,145.4,58.3,145.9,57.9z"/>
<path class="st0" d="M87.8,31.4c0.2,2.7,0.2,11.5-0.6,13l-0.4,0.9l1,0.2c0.3,0,0.6,0.1,1,0.1c3.8,0,10.2-2.4,11.6-4.1l0.3-0.4
	l-0.2-0.4c-0.8-1.6-2.2-3.2-3.2-4.3l-0.2-0.2c-1.4-1.6-2.2-2-3-2.6c-0.1-0.1-0.2-0.1-0.3-0.2l1.1-0.9c1-0.6,4-2.6,5.3-5.1l0.2-0.5
	l-0.3-0.4c-3.4-4.1-8.9-7.2-13.9-8l-1.3-0.2l0.5,1.2C86.3,22.5,87.5,27.8,87.8,31.4z M95.6,28.3c-0.3,0.1-0.6,0.3-0.9,0.4
	c-0.8,0.3-1.6,0.7-2.4,0.9c0-0.4,0-0.8,0-1.2c0-0.7,0-1.4,0-2.2c0-0.6-0.1-1.2-0.2-1.8c0-0.1,0-0.3,0-0.4C93.4,25,95,26.8,95.6,28.3
	z M91.9,35.4c1.1,1.1,3,3.8,3.6,5.4C93.7,41,92.8,41.1,91,41L91.9,35.4z"/>
<path class="st0" d="M88.8,76.1c-2.4-3.3-4.1-6.3-5.8-10c-0.8-1.8-1.6-3.7-2.2-5.7c-0.9-2.6-0.9-2.6-0.3-3.2
	c0.3-0.4,0.6-0.9,1.1-1.7l0.4-0.8l-1.1-0.4c-0.6-0.2-1.2-0.4-1.7-0.7c-0.9-0.5-1-0.6-1.4-0.6c-0.1,0-0.2,0-0.7-0.2l-0.5-0.1
	l-0.3,0.4c-1.7,2.1-4.1,9-4.7,11.3c-0.8,2.9-2.2,8.4-2.2,13.4l0,0.8l2.3,0l0.2-0.4c0.2-0.5,0.5-1.6,0.8-3.2c0.2-0.8,0.3-1.5,0.4-1.9
	c0.9-3.4,2.6-7.6,4.2-10.7c0-0.1,0.1-0.1,0.1-0.2c1,5.4,3.5,11.1,6,16.1l0.2,0.5l0.5-0.1c0.8-0.1,2.1-0.6,3.2-1.1
	c0.4-0.2,0.8-0.3,1.1-0.4l0.9-0.3L88.8,76.1z"/>
<path class="st0" d="M124.8,64.2c-0.1,0-0.1,0-0.1-0.1c0.2-3.9,0.1-7.1-0.3-9.7l-0.1-0.6l-3.4-0.4l0.1,1.9c0.1,1.4,0.1,2.7,0.1,4
	c0,0.7-0.1,1.5-0.2,2.3c-0.1,0.5-0.1,1-0.1,1.5c-0.6-0.1-1-0.1-1.4-0.2c-1-0.2-1.8-0.3-4.3-0.1c0.1-0.7,0.2-1.1,0.3-1.6
	c0.4-1.3,0.7-2.4,0.2-7.1l-0.1-0.6l-5.2-0.7l0.2,1.1c0.1,0.6,0.3,1.1,0.4,1.7c0.4,1.7,0.8,3.2,0.8,5.3c0,1.5-0.1,2.2-0.1,2.4
	c-0.3,0.2-0.5,0.5-0.7,1l-0.3,4.2l1-0.2c1.2-0.3,2-0.6,2.7-0.8c1.4-0.5,2.6-0.9,5.9-1c-0.3,3.1-2,8-3.1,10.6l-0.4,0.9l4.4,0.5
	l0.3-0.4c1.3-1.7,2.7-7.9,2.9-11.3c0,0,0.1,0,0.1,0c0.9,0.3,1.2-0.4,1.4-1l0.2-0.6l-0.4-0.4C125.5,64.5,125.2,64.4,124.8,64.2z"/>
<path class="st1" d="M34.6,47.7l-19.3,0c-1.7,0-5-0.4-6.3,0.5C8.8,50,9,72.5,8.9,75.4c0,1.4-0.1,2,1.5,2l18.5,0
	c1.8,0,5.9,0.4,6.9-0.4c0.4-0.5,0.2-21.4,0.2-25.4C36.1,48.9,36.6,47.8,34.6,47.7z"/>
<path class="st1" d="M96.2,91c-0.1-0.2-0.3-0.3-0.4-0.4c-0.1-0.1-0.3-0.2-0.4-0.3c-0.1-0.1-0.3-0.2-0.6-0.3
	c-0.2-0.1-0.4-0.2-0.7-0.2c-0.2-0.1-0.5-0.2-0.7-0.3c-0.2-0.1-0.4-0.2-0.6-0.3c-0.2-0.1-0.4-0.2-0.5-0.3c-0.1-0.1-0.2-0.2-0.2-0.3
	c0-0.1,0-0.1,0-0.2c0.2-0.1,0.3-0.1,0.5-0.1c0.4-0.1,0.8-0.1,1.1,0l0.2,0c0,0.1,0,0.2,0,0.2c0,0.2,0,0.3,0,0.4L94,89l0.2,0.1
	c0.1,0,0.2,0.1,0.4,0c0.1,0,0.2-0.1,0.2-0.2l0.2-0.2c0.1-0.1,0.1-0.1,0.2-0.1c0.1-0.1,0.3-0.1,0.4-0.2c0.2-0.1,0.4-0.2,0.5-0.4
	c0.1-0.2,0.1-0.4-0.3-0.7c-0.1-0.1-0.3-0.2-0.5-0.3c-0.2-0.1-0.3-0.2-0.5-0.3c-0.2-0.1-0.3-0.1-0.4-0.2c-0.1,0-0.2,0-0.3,0
	c-0.1,0-0.2,0-0.3,0.1c-0.1,0-0.2,0.1-0.3,0.1L93.3,87c-0.1,0-0.1,0-0.2,0.1c-0.1,0-0.3,0-0.4,0.1c-0.2,0-0.3,0-0.5,0
	c-0.2,0-0.3,0-0.5,0c-0.2,0-0.4,0-0.6-0.1l-0.1,0c-0.1,0-0.2-0.1-0.3-0.1c-0.3-0.1-0.5,0.1-0.6,0.2c0,0.1-0.1,0.1-0.1,0.2
	c0,0.2,0,0.3,0.1,0.4c0,0.1,0.1,0.1,0.2,0.2l0.1,0.1c0,0.1,0,0.2,0.1,0.3c0,0.2,0.1,0.4,0.1,0.5c0,0.2,0.1,0.3,0.1,0.4
	c0.1,0.2,0.3,0.4,0.5,0.6c0.2,0.2,0.4,0.3,0.6,0.5c0.2,0.1,0.5,0.3,0.7,0.4c0.3,0.1,0.5,0.2,0.8,0.3c0.2,0.1,0.5,0.2,0.7,0.3
	c0.2,0.1,0.4,0.2,0.5,0.3c0.1,0.1,0.2,0.2,0.3,0.3c0.1,0.1,0.1,0.2,0.1,0.3s0,0.3-0.1,0.3c0,0.1-0.1,0.2-0.2,0.2
	c-0.1,0.1-0.1,0.1-0.2,0.1c-0.1,0-0.2,0.1-0.3,0.1c-0.1,0-0.2,0-0.4,0c-0.4,0-1,0-1.4,0c-0.3,0-0.4-0.1-0.4-0.1
	c-0.2-0.1-0.2-0.2-0.2-0.2c0-0.1-0.1-0.1-0.1-0.1c0-0.1,0-0.1,0-0.2c0-0.1,0-0.3,0-0.4c0-0.1-0.1-0.4-0.4-0.5
	c-0.1,0-0.3-0.1-0.6,0.2c-0.1,0.1-0.1,0.2-0.2,0.4l-0.1,0.3c0,0,0,0,0,0.1c-0.1,0.1-0.1,0.1-0.2,0.2c-0.1,0.1-0.2,0.1-0.2,0.2
	c-0.1,0.1-0.2,0.3-0.2,0.5c0,0.2,0.1,0.3,0.2,0.5c0.1,0.1,0.2,0.2,0.4,0.3c0.2,0.1,0.5,0.2,0.9,0.3c0.4,0.1,0.9,0.2,1.6,0.2l0.2,0
	c0.1,0,0.2,0,0.3,0c0.1,0,0.3,0,0.5,0c0.2,0,0.3,0,0.5,0l0.1,0c0.1,0,0.2,0,0.3,0c0.1,0,0.3,0,0.3,0c0.3-0.1,0.6-0.1,0.8-0.2
	c0.2-0.1,0.4-0.3,0.6-0.5c0.2-0.2,0.3-0.4,0.3-0.6c0.1-0.2,0.1-0.5,0.1-0.7c0-0.3,0-0.6-0.1-0.8C96.4,91.3,96.3,91.1,96.2,91z"/>
<path class="st1" d="M119.7,88.2c0-0.3-0.1-0.5-0.3-0.7c-0.2-0.2-0.4-0.4-0.6-0.5c-0.1-0.1-0.2-0.1-0.3-0.1
	c-0.4-0.2-0.9-0.1-1.1,0.3c-0.1,0.2-0.1,0.3,0,0.5c0,0.1,0,0.1,0.1,0.2c0,0.1,0.1,0.2,0.1,0.4c0,0.1,0.1,0.3,0.1,0.5v0.1
	c0,0.1,0,0.1,0,0.2c0,0.1,0,0.1,0,0.2v0.2c-0.2,0-0.4,0-0.7,0c-0.1,0-0.3,0-0.5,0.1l-2.1,0.3c0,0,0,0,0,0c0-0.3,0-0.5,0-0.7
	c0-0.3,0-0.4,0-0.5c0-0.1,0-0.2,0-0.3c0-0.1,0-0.1,0-0.2c0-0.1,0.1-0.2,0.1-0.2c0-0.1,0-0.2,0-0.3c0-0.2-0.3-0.4-0.3-0.4
	c-0.1-0.1-0.2-0.1-0.4-0.2c-0.1,0-0.2-0.1-0.4-0.1c-0.1,0-0.3-0.1-0.4-0.1s-0.3,0-0.3,0c-0.1,0-0.3,0-0.5,0.2
	c-0.1,0.1-0.1,0.3,0.1,0.6c0,0.1,0.1,0.2,0.2,0.3c0.1,0.1,0.1,0.3,0.2,0.4c0.1,0.2,0.1,0.3,0.1,0.5l0,0.3c0,0.1,0,0.3,0,0.5
	c0,0.2,0,0.4,0,0.7c0,0.2,0,0.5,0,0.7v0.6c0,0.2,0,0.3,0,0.5l0,0.4c0,0.1,0,0.2,0,0.2c0,0,0,0.1,0,0.1c0,0,0,0,0,0l-0.4,0
	c-0.1,0-0.3,0-0.5,0.1l-0.1,0.1V93c0,0.2,0.1,0.3,0.2,0.4c0.1,0.1,0.1,0.2,0.2,0.2c0.1,0.2,0.3,0.3,0.4,0.4c0.2,0.2,0.3,0.3,0.4,0.3
	l0.1,0.1c0.1,0.1,0.3,0.1,0.5,0c0.1,0,0.3-0.1,0.4-0.2c0.1-0.1,0.3-0.2,0.4-0.4l0.1-0.2v-0.1c0-0.1,0-0.2,0-0.3l0-0.4
	c0-0.1,0-0.3,0-0.5v-1.3c0.1,0,0.2,0,0.2,0c0.4,0,0.7-0.1,0.9-0.1c0.4-0.1,0.8-0.1,1.3,0l0.4,0c0.1,0,0.3,0,0.4,0c0,0,0,0.1,0,0.1
	c0,0.1,0,0.3,0,0.4c0,0.4,0,0.7-0.1,1c0,0.3-0.1,0.5-0.1,0.7c0,0.2,0,0.4,0,0.5c0,0.2,0.1,0.3,0.2,0.4c0.1,0.1,0.2,0.2,0.3,0.3
	c0.1,0.1,0.3,0.1,0.4,0.1c0.2,0,0.3,0,0.4-0.1c0.1-0.1,0.2-0.2,0.4-0.3c0.1-0.1,0.2-0.2,0.2-0.4c0.1-0.2,0.1-0.3,0.1-0.5
	c0-0.1,0-0.3,0-0.3c0-0.1,0-0.2,0-0.3c0-0.1,0-0.2,0-0.2c0-0.1,0-0.2,0-0.3V92c0-0.1,0-0.1,0-0.2l0-1.5c0-0.2,0-0.4,0-0.5
	c0-0.2,0-0.4,0-0.5v-0.6c0-0.1,0-0.1,0-0.1l0-0.1C119.7,88.5,119.7,88.3,119.7,88.2z"/>
<path class="st1" d="M111.2,91c-0.1-0.2-0.3-0.3-0.4-0.4c-0.1-0.1-0.3-0.2-0.4-0.3c-0.2-0.1-0.3-0.2-0.6-0.3
	c-0.2-0.1-0.4-0.2-0.7-0.2c-0.2-0.1-0.5-0.2-0.7-0.3c-0.2-0.1-0.4-0.2-0.6-0.3c-0.2-0.1-0.4-0.2-0.5-0.3c-0.1-0.1-0.2-0.2-0.2-0.3
	c0-0.1,0-0.1,0-0.2c0.2-0.1,0.3-0.1,0.5-0.1c0.4-0.1,0.8-0.1,1.1,0l0.2,0c0,0.1,0,0.2,0,0.2c0,0.2,0,0.3,0,0.4l0.1,0.2l0.2,0.1
	c0.1,0,0.3,0,0.4-0.1c0.1,0,0.2-0.1,0.2-0.2l0.2-0.2c0.1-0.1,0.1-0.1,0.2-0.1c0.1-0.1,0.3-0.1,0.4-0.2c0.2-0.1,0.4-0.2,0.5-0.4
	c0.1-0.2,0.1-0.4-0.3-0.7c-0.1-0.1-0.3-0.2-0.5-0.3c-0.2-0.1-0.3-0.2-0.5-0.3c-0.2-0.1-0.3-0.1-0.4-0.2c-0.1,0-0.2,0-0.3,0
	c-0.1,0-0.2,0-0.3,0.1c-0.1,0-0.2,0.1-0.3,0.1l-0.2,0.1c-0.1,0-0.1,0-0.2,0.1c-0.1,0-0.3,0-0.4,0.1c-0.2,0-0.3,0-0.5,0
	c-0.2,0-0.3,0-0.5,0c-0.2,0-0.4,0-0.6-0.1l-0.1,0c-0.1,0-0.2-0.1-0.3-0.1c-0.3-0.1-0.5,0.1-0.6,0.2c0,0.1-0.1,0.1-0.1,0.2
	c0,0.1,0,0.3,0,0.4c0,0.1,0.1,0.1,0.2,0.2l0.1,0.1c0,0.1,0,0.2,0,0.3c0,0.2,0.1,0.4,0.1,0.5c0,0.2,0.1,0.3,0.1,0.4
	c0.1,0.2,0.3,0.4,0.5,0.6c0.2,0.2,0.4,0.3,0.6,0.5c0.2,0.1,0.5,0.3,0.7,0.4c0.3,0.1,0.5,0.2,0.8,0.3c0.2,0.1,0.5,0.2,0.7,0.3
	c0.2,0.1,0.4,0.2,0.5,0.3c0.1,0.1,0.2,0.2,0.3,0.3c0.1,0.1,0.1,0.2,0.1,0.3c0,0.1,0,0.3-0.1,0.3c0,0.1-0.1,0.2-0.1,0.2
	c-0.1,0.1-0.1,0.1-0.2,0.1c-0.1,0-0.2,0.1-0.3,0.1c-0.1,0-0.2,0-0.4,0c-0.4,0-1,0-1.4,0c-0.3,0-0.4-0.1-0.4-0.1
	c-0.2-0.1-0.2-0.2-0.2-0.2c0-0.1-0.1-0.1-0.1-0.1c0-0.1,0-0.1,0-0.2c0-0.1,0-0.3,0-0.4c0-0.1-0.1-0.4-0.4-0.5
	c-0.1,0-0.3-0.1-0.5,0.2c-0.1,0.1-0.1,0.2-0.2,0.4c-0.1,0.1-0.1,0.2-0.1,0.3c0,0,0,0-0.1,0.1c-0.1,0.1-0.1,0.1-0.2,0.2
	c-0.1,0.1-0.2,0.1-0.2,0.2c-0.1,0.1-0.2,0.3-0.2,0.5c0,0.2,0.1,0.3,0.2,0.4c0.1,0.1,0.2,0.2,0.4,0.3s0.5,0.2,0.9,0.3
	c0.4,0.1,0.9,0.2,1.6,0.2l0.2,0c0.1,0,0.2,0,0.3,0c0.2,0,0.3,0,0.5,0c0.2,0,0.3,0,0.5,0l0.1,0c0.1,0,0.2,0,0.3,0c0.1,0,0.3,0,0.3,0
	c0.3-0.1,0.6-0.1,0.8-0.2c0.2-0.1,0.4-0.3,0.6-0.5c0.2-0.2,0.3-0.4,0.3-0.6c0.1-0.2,0.1-0.5,0.1-0.7c0-0.3,0-0.6-0.1-0.8
	C111.4,91.3,111.3,91.1,111.2,91z"/>
<path class="st1" d="M103.7,87.3c-0.3-0.1-0.5-0.3-0.7-0.3c-0.6-0.3-1-0.1-1.2,0.3l0,0.1c0,0.1,0,0.3,0.1,0.4l0.3,0.5
	c0,0.1,0.1,0.1,0.1,0.2c0,0,0,0.2,0,0.4c0,0.2,0,0.4,0,0.6c0,0.2,0,0.5,0,0.8c0,0.3,0,0.6,0,0.9v0.4c0,0.1,0,0.2,0,0.3l0,0.5
	c0,0-0.1,0-0.1,0c-0.2,0-0.5,0.1-0.9,0.1c-0.4,0.1-0.7,0.1-1.2,0.2c-0.4,0.1-0.8,0.1-1.2,0.1c0,0,0,0,0,0c0,0,0,0,0,0c0,0,0,0,0-0.1
	c0-0.1,0-0.2,0-0.4c0-0.2,0-0.4,0.1-0.6c0-0.2,0.1-0.5,0.1-0.8c0-0.3,0.1-0.6,0.1-0.8c0-0.3,0.1-0.5,0.1-0.8c0-0.3,0-0.5,0-0.7
	c0-0.1,0-0.2,0-0.3c0-0.1,0-0.2-0.1-0.3c-0.1-0.3-0.3-0.5-0.5-0.6c-0.2-0.1-0.4-0.2-0.6-0.3c-0.2-0.1-0.3-0.1-0.5-0.1
	c-0.1,0-0.2,0-0.3,0c-0.3,0-0.5,0.3-0.5,0.6c0,0.2,0.1,0.4,0.3,0.6c0,0,0,0,0,0.1c0,0.1,0,0.3,0.1,0.5c0,0.2,0,0.4,0,0.7
	c0,0.3,0,0.5,0,0.8c0,0.6,0,1,0,1.4c0,0.4,0,0.6,0,0.8c0,0.1,0,0.2,0,0.3c0,0,0,0.1-0.1,0.2c0,0-0.1,0.1-0.1,0.1
	c-0.2,0.2-0.3,0.4-0.3,0.7c0,0.2,0.1,0.4,0.2,0.6c0.1,0.2,0.2,0.3,0.3,0.4c0.1,0.1,0.3,0.2,0.5,0.2c0.1,0,0.3,0,0.5-0.1
	c0.1-0.1,0.2-0.1,0.4-0.1c0.3-0.1,0.7-0.2,1.2-0.3c0.4-0.1,0.9-0.2,1.3-0.3c0.4-0.1,0.8-0.2,1.1-0.2c0.1,0,0.2,0,0.3-0.1l0,0.1
	c0,0.1,0,0.2,0.1,0.4c0,0.1,0.1,0.2,0.2,0.3c0.1,0.1,0.2,0.2,0.3,0.2c0.1,0.1,0.3,0.1,0.4,0.1c0.2,0,0.4-0.1,0.6-0.2
	c0.2-0.1,0.3-0.4,0.4-0.7c0-0.2,0-0.4,0-0.7c0-0.2-0.1-0.4-0.1-0.7c0-0.5,0-0.9-0.1-1.3c0-0.4,0-0.8,0-1.2c0-0.2,0-0.4,0-0.6
	c0-0.2,0-0.3,0-0.3c0.1-0.2,0.1-0.3,0.2-0.4c0.1-0.2,0.1-0.3,0.1-0.5c0-0.1,0-0.3-0.2-0.5C104.1,87.5,103.9,87.4,103.7,87.3z"/>
<path class="st1" d="M136.2,87.3c-0.1-0.1-0.2-0.2-0.3-0.2c-0.2-0.1-0.4-0.2-0.5-0.3c-0.4-0.1-0.6-0.1-1.1,0L134,87
	c-0.1,0.1-0.3,0.1-0.5,0.1c0,0-0.1,0-0.2,0c-0.1,0-0.2,0-0.4,0c-0.2,0-0.3,0-0.5,0c-0.2,0-0.3,0-0.4,0c-0.1,0-0.2,0-0.4,0
	c-0.2,0-0.3,0-0.4-0.1c-0.1,0-0.3-0.1-0.4-0.1l-0.3-0.1c-0.3-0.1-0.5,0-0.6,0.2c-0.1,0.1-0.1,0.1-0.1,0.3c0,0.1,0,0.2,0.1,0.3
	c0,0.1,0.1,0.2,0.2,0.3c0.1,0.1,0.1,0.1,0.2,0.3c0.1,0.2,0.1,0.3,0.2,0.5c0.1,0.2,0.1,0.4,0.1,0.6c0,0.2,0,0.4,0,0.6v1.2
	c0,0.2,0,0.4,0,0.6l0,0.5c0,0.2,0,0.3,0,0.4c0,0,0,0,0,0c-0.1,0-0.2,0-0.3,0l-0.2,0c-0.1,0-0.2,0-0.3,0c-0.2,0.1-0.3,0.2-0.3,0.3
	l-0.1,0.2l0.1,0.2c0.1,0.1,0.1,0.2,0.3,0.4c0.1,0.1,0.2,0.2,0.3,0.3c0.1,0.1,0.2,0.2,0.3,0.3c0.1,0.1,0.2,0.2,0.3,0.2
	c0.1,0,0.2,0.1,0.3,0.1c0,0,0,0,0,0c0.1,0,0.2,0,0.3-0.1c0.1,0,0.2-0.1,0.4-0.2c0.1-0.1,0.2-0.2,0.3-0.3c0.1-0.1,0.1-0.2,0.1-0.3
	c0-0.1,0-0.1,0-0.1c0-0.1,0-0.1,0-0.4c0-0.2,0-0.4,0-0.7c0-0.2,0-0.5,0-0.8l0-0.8c0,0,0,0,0,0l0.2,0.2c0.1,0.1,0.1,0.2,0.2,0.2
	c0.1,0.1,0.3,0.3,0.7,0.3c0.3,0,0.7-0.1,1-0.1c0.3-0.1,0.6-0.2,0.8-0.3c0.3-0.2,0.5-0.5,0.7-0.8c0.1-0.3,0.2-0.5,0.2-0.8
	c0.1-0.3,0.1-0.5,0.1-0.8c0-0.2,0.1-0.4,0.2-0.6c0-0.1,0.1-0.2,0.1-0.3c0-0.1,0-0.2-0.1-0.4C136.4,87.5,136.3,87.4,136.2,87.3z
	 M134.5,89.4c0,0.2-0.1,0.3-0.2,0.4c0,0.1-0.1,0.2-0.2,0.2c-0.1,0.1-0.2,0.1-0.3,0.1c-0.1,0-0.3,0-0.5,0c-0.3,0-0.5,0-0.6-0.1
	c-0.1,0-0.2,0-0.3,0c-0.1,0-0.1,0-0.2,0c0,0,0-0.1,0-0.2c0-0.2,0-0.5,0-0.6c0-0.2,0-0.3,0-0.4c0-0.1,0-0.2,0-0.2c0,0,0,0,0.1-0.1
	c0,0,0.2-0.1,0.6-0.1c0.3,0,0.7-0.1,1-0.1c0.2,0,0.3,0,0.4,0c0.1,0,0.1,0.1,0.1,0.1c0,0,0.1,0.1,0.1,0.1c0,0,0,0.1,0,0.2
	C134.6,88.9,134.5,89.1,134.5,89.4z"/>
<path class="st1" d="M124.4,93.3c-0.1,0-0.2-0.1-0.4-0.1c-0.1,0-0.3,0-0.4-0.1c-0.1,0-0.2,0-0.3,0c-0.1,0-0.1,0-0.1-0.1
	c0,0,0,0,0-0.1c0-0.1,0-0.2,0-0.4c0-0.2,0-0.4,0-0.7c0-0.2,0-0.4,0.1-0.7l0-0.1c0-0.3,0-0.6,0.1-0.9l0-0.2c0-0.2,0-0.4,0-0.5
	c0-0.2,0-0.4,0-0.6v-0.2c0-0.1,0-0.2-0.1-0.3c0-0.1,0-0.1-0.1-0.1c0,0,0,0,0,0c0.1,0,0.2,0,0.3,0l0.2,0c0.1,0,0.2,0,0.3,0
	c0.1,0,0.2,0,0.3-0.1c0.1,0,0.2-0.1,0.3-0.2l0.1-0.1c0-0.1,0.1-0.3-0.1-0.5c-0.1-0.1-0.2-0.2-0.3-0.2c-0.1-0.1-0.2-0.1-0.3-0.2
	c-0.1-0.1-0.3-0.1-0.4-0.1s-0.3,0-0.5,0c-0.2,0-0.3,0-0.5,0.1l-0.2,0c-0.2,0-0.5,0.1-0.7,0.1c-0.2,0-0.4,0-0.5,0.1
	c-0.1,0-0.3,0-0.4,0c-0.3,0-0.5,0-0.7,0c-0.2,0-0.3,0.1-0.4,0.2l-0.1,0.2c0,0.1,0,0.1,0,0.2c0,0.1,0.1,0.2,0.1,0.3
	c0.1,0.1,0.1,0.2,0.3,0.2c0.1,0.1,0.2,0.1,0.4,0.1c0.1,0,0.3,0,0.5,0c0.1,0,0.2,0,0.3,0l0.1,0c0,0,0,0,0,0c0,0.1,0.1,0.3,0.1,0.5
	c0,0.2,0,0.3,0.1,0.5c0,0.2,0,0.3,0,0.3c0,0.7-0.1,1.3-0.1,1.8c0,0.5,0,0.8,0,1.1c0,0.3,0,0.4,0,0.6c-0.1,0-0.1,0-0.2,0l-0.3,0
	c-0.2,0-0.3,0-0.3,0.1c-0.2,0.1-0.3,0.3-0.2,0.6c0,0.1,0.1,0.3,0.2,0.4c0.1,0.1,0.1,0.2,0.2,0.3c0.1,0.1,0.3,0.2,0.4,0.2
	c0,0,0,0,0,0c0,0,0.2,0,0.4,0l0.7-0.1c0.3,0,0.5-0.1,0.8-0.1c0.3,0,0.6-0.1,0.8-0.1c0.3,0,0.5-0.1,0.6-0.1c0.1,0,0.3-0.1,0.4-0.3
	l0.1-0.2l-0.1-0.2C124.8,93.4,124.6,93.3,124.4,93.3z"/>
<path class="st1" d="M165.6,93.7c0-0.1-0.1-0.2-0.1-0.3c-0.1-0.1-0.1-0.2-0.2-0.2c-0.1-0.1-0.2-0.1-0.2-0.2l0,0
	c-0.2-0.1-0.3-0.1-0.5-0.2c-0.3-0.1-0.5-0.1-0.8,0c-0.1,0-0.3,0-0.4,0.1l-0.5,0.1c-0.2,0-0.4,0.1-0.6,0.1c-0.2,0-0.3,0-0.4,0.1
	c-0.1,0-0.2,0-0.3,0c0-0.2,0-0.5,0.1-0.8c0-0.3,0-0.7,0-1.1c0.1,0,0.2,0,0.3,0c0.2,0,0.4-0.1,0.6-0.1c0.2,0,0.5,0,0.7,0
	s0.4-0.1,0.6-0.1c0.2,0,0.3-0.1,0.5-0.1c0.1,0,0.3-0.1,0.3-0.3c0-0.2,0-0.3-0.2-0.4c-0.1-0.1-0.2-0.1-0.3-0.2
	c-0.1,0-0.2-0.1-0.4-0.1c-0.1,0-0.2,0-0.3-0.1c-0.1,0-0.2,0-0.4,0c-0.1,0-0.2,0.1-0.3,0.1l-0.4,0.1c-0.1,0-0.3,0.1-0.4,0.1
	c-0.1,0-0.2,0-0.2,0c0,0-0.1,0-0.1,0h0c0-0.1,0-0.1,0-0.2c0-0.1,0-0.3,0-0.4c0-0.2,0-0.3,0-0.4c0-0.1,0-0.2,0-0.3c0-0.1,0-0.2,0-0.2
	c0,0,0,0,0.1-0.1c0.1,0,0.2-0.1,0.3-0.1c0.1,0,0.3-0.1,0.4-0.1c0.2,0,0.3-0.1,0.5-0.1c0.3,0,0.5,0,0.8,0c0,0.1-0.1,0.2-0.1,0.2
	c-0.2,0.4,0.1,0.6,0.1,0.6c0.1,0.1,0.3,0.1,0.5-0.1c0.1-0.1,0.3-0.2,0.4-0.4c0.1-0.1,0.2-0.2,0.3-0.2c0.1-0.1,0.1-0.1,0.2-0.1
	l0.2-0.1c0.1,0,0.1-0.1,0.2-0.1c0.2-0.1,0.2-0.4,0.1-0.6c-0.1-0.1-0.2-0.2-0.3-0.3c-0.1-0.1-0.3-0.2-0.4-0.2
	c-0.2-0.1-0.3-0.1-0.4-0.1c-0.1,0-0.2,0-0.3,0.2c0,0,0,0,0,0c-0.2,0-0.4,0.1-0.6,0.1c-0.2,0-0.5,0.1-0.7,0.1c-0.2,0-0.5,0-0.7,0.1
	c-0.2,0-0.5,0-0.7,0c-0.1,0-0.2,0-0.4,0l-0.5-0.1c-0.2,0-0.3-0.1-0.4-0.1c-0.1,0-0.3,0-0.4,0.1c-0.2,0.1-0.2,0.3-0.2,0.5
	c0,0.1,0.1,0.2,0.2,0.3c0.1,0.1,0.1,0.2,0.2,0.3c0,0.1,0.1,0.3,0.1,0.5c0,0.1,0,0.2,0.1,0.3c0,0.1,0,0.3,0,0.5c0,0.2,0,0.4,0,0.6
	c0,0.2,0,0.4,0,0.6c0,0.2,0,0.5,0,0.7c0,0.2,0,0.5,0,0.7c0,0.2,0,0.3-0.1,0.5c0,0.2-0.1,0.3-0.1,0.3c-0.1,0.3-0.1,0.5-0.1,0.6
	c0,0.3,0.1,0.5,0.2,0.6c0.1,0.1,0.2,0.2,0.3,0.2c0.1,0.1,0.3,0.1,0.4,0.1c0.1,0,0.2,0,0.3-0.1c0.1,0,0.1-0.1,0.2-0.1
	c0.2,0,0.3-0.1,0.5-0.1c0.2,0,0.5-0.1,0.7-0.1c0.2,0,0.5,0,0.7-0.1c0.2,0,0.3,0,0.5,0c0.3,0,0.6,0.1,0.7,0.1c0.2,0,0.3,0.1,0.4,0.1
	l0.2,0.1c0.1,0,0.2,0,0.4,0.1c0.2,0,0.3,0,0.4-0.1c0.1-0.1,0.1-0.2,0.1-0.3C165.7,93.9,165.6,93.8,165.6,93.7z"/>
<path class="st1" d="M157.1,89.2c0,0.4,0.2,0.4,0.3,0.4c0.1,0,0.2,0,0.3-0.2c0-0.1,0.1-0.1,0.1-0.2c0-0.1,0.1-0.2,0.1-0.2l0.1-0.2
	c0,0,0-0.1,0.1-0.1c0.1-0.1,0.2-0.1,0.2-0.2c0.1-0.1,0.2-0.1,0.3-0.2c0.1-0.1,0.2-0.3,0.2-0.4c0-0.3-0.2-0.5-0.4-0.6
	c-0.3-0.2-0.7-0.3-1.2-0.4c-0.9-0.2-1.9-0.2-2.8,0c-0.4,0-0.7,0.1-1,0.3c-0.3,0.1-0.5,0.3-0.7,0.5c-0.2,0.2-0.4,0.5-0.5,0.7
	c-0.1,0.3-0.2,0.5-0.2,0.8c0,0.7,0,1.3,0.1,1.8c0.1,0.5,0.2,1,0.4,1.4c0.2,0.4,0.4,0.8,0.6,1.1c0.2,0.3,0.5,0.5,0.7,0.7
	c0.2,0.1,0.4,0.2,0.6,0.2c0.2,0,0.4,0.1,0.6,0.1c0.3,0,0.6,0,1-0.1c0.3-0.1,0.6-0.1,0.9-0.2c0.3-0.1,0.5-0.2,0.8-0.3
	c0.2-0.1,0.4-0.2,0.5-0.2c0.3-0.2,0.4-0.3,0.4-0.5c0.1-0.3,0-0.4-0.1-0.5c-0.1-0.1-0.2-0.2-0.5-0.1c-0.1,0-0.2,0-0.3,0.1l-0.4,0.2
	c-0.2,0.1-0.3,0.1-0.5,0.2c-0.2,0.1-0.4,0.1-0.6,0.2c-0.4,0.1-0.8,0.1-1.3,0c-0.2,0-0.4-0.1-0.5-0.2c-0.2-0.1-0.3-0.2-0.4-0.4
	c-0.1-0.1-0.2-0.3-0.3-0.6c-0.1-0.2-0.1-0.5-0.2-0.7c0-0.3-0.1-0.5-0.1-0.8c0-0.2,0-0.4,0-0.7c0-0.2,0.1-0.4,0.1-0.6
	c0.1-0.2,0.2-0.3,0.3-0.4c0.1-0.1,0.2-0.2,0.3-0.2c0.1-0.1,0.2-0.1,0.4-0.1c0.1,0,0.3-0.1,0.5-0.1c0.4-0.1,0.8-0.1,1.2,0
	c0.1,0,0.2,0.1,0.3,0.1c0.1,0.1,0.2,0.1,0.2,0.2c0,0.1,0,0.1,0,0.2c0,0.1,0,0.2,0,0.3C157.1,88.9,157.1,89.1,157.1,89.2z"/>
<path class="st1" d="M151.7,93.7c-0.1-0.1-0.2-0.1-0.3-0.2c-0.2-0.1-0.4-0.1-0.5-0.2c-0.2-0.1-0.3-0.1-0.5-0.2
	c-0.2-0.1-0.3-0.2-0.5-0.3c-0.1-0.1-0.3-0.2-0.5-0.4l-0.1-0.1c0,0,0,0,0-0.1c0.1,0,0.3,0,0.4,0h0.3c0.1,0,0.2,0,0.3,0
	c0.2,0,0.4,0,0.5-0.1c0.2-0.1,0.3-0.1,0.3-0.2c0.1-0.1,0.1-0.3,0.1-0.4c0-0.1-0.1-0.2-0.2-0.3c-0.1,0-0.1-0.1-0.2-0.1
	c-0.1-0.1-0.2-0.1-0.3-0.2c-0.1-0.1-0.2-0.1-0.3-0.1c-0.1,0-0.3,0-0.4,0c-0.1,0-0.1,0-0.3,0.1c-0.1,0-0.2,0-0.3,0l-0.5,0.1
	c-0.1,0-0.1,0-0.2,0c-0.1-0.1-0.1-0.2-0.2-0.3c-0.1-0.2-0.2-0.4-0.3-0.6c-0.1-0.2-0.2-0.4-0.3-0.6c-0.1-0.2-0.1-0.3-0.2-0.4
	c0-0.1,0.1-0.2,0.1-0.3c0-0.1,0.1-0.3,0.1-0.4c0.1-0.1,0.1-0.2,0.1-0.3c0-0.1,0-0.1,0-0.1c0.1-0.1,0.1-0.1,0.1-0.2
	c0-0.1,0-0.3-0.1-0.4c-0.1-0.1-0.2-0.2-0.4-0.3c-0.1-0.1-0.3-0.1-0.5-0.2c-0.4-0.1-0.7-0.1-0.9,0c-0.1,0-0.3,0.1-0.4,0.3
	c0,0.1,0,0.2,0,0.2c0,0.1,0,0.1,0.1,0.2c0,0.1,0.1,0.1,0.1,0.2c0,0,0,0.1,0,0.3c0,0.2-0.1,0.4-0.2,0.7c-0.1,0.3-0.2,0.7-0.4,1.1
	c-0.2,0.4-0.4,0.9-0.6,1.4c-0.1,0-0.3,0-0.4,0c-0.1,0-0.2,0-0.3,0c-0.2,0-0.4,0-0.5,0.1c-0.1,0-0.3,0.1-0.4,0.1
	c-0.1,0.1-0.2,0.1-0.3,0.2c0,0-0.1,0.1-0.1,0.1c-0.1,0.1-0.1,0.3,0,0.4c0,0.1,0.1,0.1,0.2,0.1c0.1,0,0.2,0.1,0.3,0.1
	c0.1,0,0.2,0.1,0.3,0.1c0.1,0,0.2,0,0.3,0c0,0,0.1,0,0.1,0c-0.1,0.1-0.1,0.1-0.2,0.2c-0.2,0.2-0.6,0.5-1,0.8c-0.1,0-0.1,0.1-0.1,0.1
	c0-0.1-0.1-0.2-0.2-0.3c-0.1-0.1-0.3-0.3-0.4-0.4c-0.2-0.1-0.3-0.2-0.5-0.2c-0.3-0.1-0.6-0.1-0.8,0c-0.1,0-0.1,0-0.2,0l-0.4,0.1
	c-0.1,0-0.3,0.1-0.5,0.1c-0.1,0-0.1,0-0.2,0c-0.1,0-0.2,0-0.3,0c-0.1,0-0.2,0-0.3,0c0,0,0-0.1,0-0.1c0-0.1,0-0.1,0-0.2l0-0.2
	c0-0.1,0-0.2,0-0.4l0.2-1.3c0-0.3,0.1-0.5,0.1-0.8l0-0.1c0-0.2,0-0.5,0.1-0.7c0-0.3,0-0.5,0-0.7l0-0.2c0-0.1,0-0.2,0-0.3
	c0-0.1,0-0.2,0-0.3c0-0.1-0.1-0.2-0.1-0.2c-0.1-0.2-0.3-0.4-0.5-0.5c-0.2-0.1-0.3-0.2-0.5-0.3c-0.2-0.1-0.3-0.1-0.4-0.1
	c-0.1,0-0.2,0-0.3,0c-0.1,0-0.2,0.1-0.3,0.2c0,0.1-0.1,0.2,0,0.3c0,0.1,0.1,0.3,0.2,0.5c0.1,0.1,0.1,0.3,0.1,0.7c0,0.4,0,0.9,0,1.4
	c0,0.3,0,0.6,0,0.8l0,0.7c0,0.2,0,0.4,0,0.6c0,0.2,0,0.3,0,0.4c0,0.3,0,0.5-0.1,0.6c-0.1,0.2-0.2,0.3-0.2,0.3
	c-0.2,0.2-0.3,0.4-0.3,0.5c0,0.1,0,0.3,0.2,0.5c0.1,0.2,0.3,0.3,0.4,0.3c0.1,0,0.2,0,0.2,0c0,0,0.1,0,0.1,0l0.3-0.1
	c0.1,0,0.3-0.1,0.4-0.1l0.4-0.1c0.3-0.1,0.6-0.1,0.9-0.1c0.3,0,0.5,0,0.6,0c0.3,0,0.6,0.1,0.7,0.1c0.2,0,0.3,0.1,0.4,0.1l0.2,0.1
	c0.1,0,0.2,0,0.4,0.1c0.2,0,0.3,0,0.4-0.1c0,0,0,0,0,0c0,0,0,0,0,0c0.1,0.1,0.2,0.2,0.4,0.2c0.1,0,0.2,0,0.4-0.1
	c0.6-0.3,1.1-0.6,1.4-1c0.3-0.3,0.6-0.6,0.8-0.9c0.1,0,0.2,0,0.4,0c0.2,0,0.3,0,0.5,0l0.5,0c0.1,0,0.2,0,0.3,0
	c0.1,0.3,0.2,0.5,0.3,0.6c0.1,0.2,0.2,0.4,0.3,0.5c0.1,0.2,0.2,0.3,0.3,0.4l0.2,0.2c0.1,0.1,0.2,0.1,0.4,0.2c0.1,0,0.3,0.1,0.4,0.1
	c0.2,0,0.3,0,0.5,0.1c0.3,0,0.7,0,1,0c0.1,0,0.3,0,0.4,0c0.1,0,0.1,0,0.2-0.1l0.2-0.2l-0.1-0.2C151.9,93.8,151.8,93.8,151.7,93.7z
	 M147.2,91.2l-0.4,0c-0.1,0-0.2,0-0.2,0c0,0,0-0.1,0.1-0.1l0.4-0.7l0.1,0.3C147.2,90.8,147.2,91,147.2,91.2
	C147.3,91.1,147.3,91.2,147.2,91.2C147.3,91.2,147.2,91.2,147.2,91.2z"/>
</svg>
